<svg xmlns="http://www.w3.org/2000/svg" viewBox="0 0 64 64" aria-hidden="true">
<circle cx="32" cy="32" r="31" fill="#25D366"/>
<path fill="#fff" d="M18.7 47.2l2-7.3A16.2 16.2 0 1 1 26.4 45l-7.7 2.2zm8.1-5.1.5.3a13.2 13.2 0 1 0-3.9-3.7l.3.5-1.1 4.1 4.2-1.2z"/>
<path fill="#fff" d="M25.7 23.8c-.3-.7-.7-.7-1-.7h-.8c-.3 0-.8.1-1.2.6-.4.5-1.6 1.5-1.6 3.7s1.6 4.3 1.8 4.6c.2.3 3.1 5 7.7 6.8 3.8 1.5 4.6 1.2 5.4 1.1.8-.1 2.6-1.1 3-2.1.4-1 .4-1.9.3-2.1-.1-.2-.4-.3-.9-.6l-2.7-1.3c-.4-.2-.8-.3-1.1.3-.3.5-1.2 1.5-1.5 1.8-.3.3-.6.3-1 .1-.5-.2-2-.7-3.8-2.3-1.4-1.2-2.3-2.8-2.6-3.2-.3-.5 0-.7.2-1 .2-.2.5-.6.7-.8.2-.3.3-.5.5-.8.2-.3.1-.6 0-.9l-1.4-3.2z"/>
</svg>